<?xml version="1.0" encoding="utf-8"?>
<!-- Generator: Adobe Illustrator 15.0.0, SVG Export Plug-In . SVG Version: 6.00 Build 0)  -->
<!DOCTYPE svg PUBLIC "-//W3C//DTD SVG 1.1//EN" "http://www.w3.org/Graphics/SVG/1.1/DTD/svg11.dtd">
<svg version="1.1" id="Camada_1" xmlns="http://www.w3.org/2000/svg" xmlns:xlink="http://www.w3.org/1999/xlink" x="0px" y="0px"
	 width="342.105px" height="292.106px" viewBox="0 0 342.105 292.106" enable-background="new 0 0 342.105 292.106"
	 xml:space="preserve">
<path fill="#FFFFFF" d="M335.749,80.814c-0.276-4.705-1.443-9.51-3.607-13.867c-0.561-1.161-1.201-2.28-1.892-3.359
	c-0.497-3.88-1.589-7.766-3.362-11.347c-2.131-4.375-5.236-8.192-8.74-11.3c-0.156-0.139-0.316-0.269-0.473-0.405
	c-0.386-1.018-0.813-2.021-1.299-3c-2.131-4.378-5.23-8.193-8.736-11.299c-0.357-0.313-0.709-0.617-1.074-0.917
	c-1.292-1.557-2.701-3.009-4.188-4.323c-3.51-3.121-7.4-5.605-11.418-7.581c-1.001-0.498-2.016-0.966-3.033-1.414l-1.547-0.653
	l-1.51-0.602c-1.986-0.772-3.995-1.51-6.033-2.178c-8.131-2.689-16.714-4.692-25.691-4.814c-4.476-0.058-9.039,0.389-13.48,1.527
	c-4.441,1.13-8.745,2.934-12.615,5.327c-3.89,2.386-7.342,5.309-10.406,8.488c-3.068,3.182-5.742,6.623-8.17,10.166
	c-2.434,3.54-4.608,7.194-6.635,10.897c-2.074,3.78-3.813,7.517-5.612,11.243l-10.535,22.387
	c-6.979,14.926-13.928,29.852-20.988,44.722c-3.526,7.439-7.093,14.852-10.696,22.238c-1.793,3.699-3.6,7.388-5.443,11.046
	c-1.281,2.508-2.547,5.029-3.869,7.496l-0.396,0.023c-8.099,0.406-16.235,0.697-24.38,0.964c-2.615-4.479-5.354-8.882-8.192-13.202
	c-1.368-2.072-10.155-16.235-13.367-21.117c-10.423-15.815-22.163-30.63-33.943-45.26l0.142,0.206
	c-1.213-2.018-3.128-3.479-5.229-4.277c-1.669-2.115-4.165-3.456-6.696-3.859c-2.928-0.489-5.893,0.155-8.363,1.462
	c-2.494,1.304-4.537,3.222-6.164,5.346c-1.625,2.134-2.857,4.486-3.816,6.9c-1.916,4.846-2.811,9.93-3.225,14.975
	c-0.396,5.058-0.284,10.11,0.107,15.115c0.803,10.016,2.759,19.855,5.25,29.514c0.623,2.409,1.245,4.827,2.049,7.223
	c0.41,1.223,0.846,2.43,1.314,3.629c0.58,2.645,1.213,5.28,1.887,7.894c0.409,1.581,0.822,3.158,1.283,4.732
	c-3.913,1.468-7.753,3.14-11.482,5.03c-2.191,1.109-4.352,2.283-6.47,3.535c-1.022,0.604-2.175,1.314-3.14,1.924l-1.592,1.029
	c-0.553,0.369-1.094,0.746-1.628,1.146c-4.284,3.146-8.143,7.221-10.78,12.119c-2.653,4.881-3.99,10.491-3.91,15.97
	c0.055,5.489,1.438,10.817,3.691,15.604c0.486,1.021,1.008,2.007,1.568,2.979c0,0.054-0.006,0.106-0.006,0.161
	c0.062,5.49,1.439,10.817,3.689,15.607c3.277,6.898,8.293,12.746,14.32,17.16c2.231,3.176,4.865,6.034,7.802,8.531
	c4.257,4.996,9.567,9.042,15.425,11.865c4.733,2.279,9.633,3.65,14.59,4.5c4.951,0.84,9.908,1.131,14.848,1.014
	c9.863-0.254,19.636-2.095,28.873-5.617c4.617-1.77,9.096-3.988,13.276-6.744c4.177-2.75,8.068-6.057,11.349-9.977
	c3.283-3.902,5.916-8.463,7.543-13.336c1.617-4.758,2.536-9.718,2.871-14.664c0.216-3.244,0.168-6.475-0.063-9.675
	c1.638-1.269,3.225-2.562,4.765-3.915c3.904-3.434,7.53-7.115,10.968-10.941c1.717-1.911,3.399-3.854,5.032-5.826l2.435-2.98
	l0.65-0.818l0.65-0.907c0.405-0.589,0.775-1.153,1.141-1.712l0.416-0.654c6.741-0.707,13.466-1.563,20.162-2.604
	c8.022-1.256,16.008-2.757,23.896-4.629c7.904-1.824,15.71-4.048,23.397-6.611c7.657-2.64,15.233-5.556,22.527-9.086
	c3.78-1.777,7.281-4.006,10.73-6.292c3.434-2.327,6.788-4.766,10.055-7.31c6.512-5.129,12.816-10.554,18.795-16.348
	c6.002-5.781,11.708-11.917,16.949-18.525c5.193-6.634,9.975-13.726,13.627-21.619c1.834-3.937,3.399-8.072,4.461-12.442
	C335.461,90.147,336.001,85.534,335.749,80.814z M42.508,159.759c-0.052-0.119-0.089-0.242-0.14-0.369
	c-0.961-4.642-1.78-9.31-2.394-13.994c0.319,1.327,0.646,2.652,0.988,3.971c0.632,2.41,1.253,4.828,2.056,7.223
	c0.793,2.392,1.704,4.729,2.719,7.02c0.398,0.879,0.818,1.748,1.244,2.609c0.148,0.584,0.303,1.173,0.457,1.76
	c-0.27,0.087-0.526,0.168-0.801,0.262C45.105,165.488,43.716,162.664,42.508,159.759z M56.525,79.763
	c0.071,0.013,0.151,0.038,0.23,0.055l0.015,0.022c3.279,4.259,6.527,8.527,9.752,12.817c-1.069-0.563-2.213-0.954-3.381-1.14
	c-1.57-0.264-3.146-0.19-4.658,0.125c-0.198-0.042-0.392-0.093-0.595-0.125c-2.925-0.491-5.89,0.154-8.365,1.46
	c-2.501,1.305-4.544,3.224-6.165,5.344c-1.618,2.137-2.858,4.485-3.82,6.903c-0.513,1.309-0.949,2.634-1.332,3.975
	c0.068-1.405,0.165-2.803,0.303-4.196c0.508-4.835,1.479-9.633,3.332-14.005c0.921-2.177,2.073-4.236,3.506-6.029
	c1.43-1.783,3.15-3.292,5.096-4.252C52.372,79.753,54.54,79.379,56.525,79.763z M38.856,126.512c0.055-2.022,0.16-4.041,0.362-6.046
	c0.504-4.833,1.474-9.63,3.327-14.003c0.932-2.18,2.085-4.24,3.509-6.03c1.072-1.331,2.297-2.507,3.657-3.418
	c-0.379,0.427-0.751,0.862-1.1,1.308c-1.624,2.137-2.857,4.487-3.816,6.903c-1.915,4.847-2.811,9.929-3.213,14.976
	c-0.214,2.631-0.279,5.261-0.241,7.886c0,2.816,0.114,5.626,0.339,8.424c0.539,6.703,1.605,13.328,2.984,19.871
	c-0.031-0.097-0.069-0.189-0.088-0.28c-0.725-2.339-1.275-4.753-1.842-7.168C41.052,141.525,39.671,134.037,38.856,126.512z
	 M140.079,208.291c-0.089-0.285-0.181-0.571-0.265-0.856c1.077-0.991,2.147-2.002,3.187-3.027c0.309-0.021,0.619-0.04,0.926-0.058
	c-1.186,1.269-2.385,2.518-3.619,3.729C140.229,208.147,140.152,208.218,140.079,208.291z M44.479,121.661
	c0.496-4.834,1.474-9.632,3.32-14.001c0.928-2.179,2.079-4.239,3.514-6.033c1.43-1.783,3.152-3.294,5.094-4.252
	c1.127-0.562,2.342-0.919,3.549-1.046c0.797,0.542,1.469,1.239,1.929,2.052l0.05,0.087l0.097,0.12
	c0.022,0.028,0.042,0.06,0.063,0.09c-2.459,1.305-4.477,3.2-6.08,5.3c-1.629,2.135-2.861,4.486-3.822,6.901
	c-0.246,0.614-0.471,1.233-0.678,1.851c-0.545,1.034-1.035,2.088-1.463,3.161c-1.918,4.844-2.806,9.93-3.224,14.974
	c-0.396,5.057-0.292,10.107,0.104,15.113c0.579,7.138,1.742,14.182,3.267,21.137c-0.266,0.081-0.529,0.164-0.796,0.238
	c-0.241-0.98-0.469-1.968-0.696-2.957c-2.203-9.647-3.888-19.432-4.469-29.254c-0.116-2.121-0.167-4.239-0.166-6.358
	C44.108,126.398,44.235,124.022,44.479,121.661z M157.075,170.226c0.038-0.005,0.066-0.008,0.105-0.012
	c-1.019,1.996-2.055,3.965-3.132,5.895c-0.13,0.008-0.259,0.016-0.386,0.022C154.841,174.172,155.974,172.201,157.075,170.226z
	 M56.572,111.097c1.427-1.787,3.148-3.295,5.091-4.253c1.881-0.937,3.986-1.315,5.931-0.978c0.429,0.568,0.865,1.138,1.29,1.704
	c-1.264,0.278-2.481,0.722-3.601,1.313c-2.491,1.308-4.53,3.223-6.153,5.345c-1.626,2.135-2.859,4.484-3.823,6.901
	c-1.914,4.846-2.813,9.931-3.218,14.974c-0.195,2.508-0.268,5.009-0.246,7.507c-0.076-0.938-0.149-1.876-0.211-2.815
	c-0.27-4.908-0.258-9.827,0.24-14.673c0.404-3.898,1.127-7.767,2.355-11.41C54.916,113.428,55.68,112.206,56.572,111.097z
	 M86.911,222.031c-1.927-1.086-3.785-2.301-5.584-3.602c2.289,1.073,4.674,1.969,7.142,2.654c3.952,2.468,8.274,4.469,12.876,5.718
	c1.301,0.354,2.637,0.644,3.982,0.873c-0.023,0.022-0.042,0.045-0.068,0.067C98.932,227.306,92.613,225.265,86.911,222.031z
	 M59.214,180.296c0-0.006-0.004-0.014-0.004-0.017c0.118-0.034,0.225-0.071,0.338-0.101c2.16-0.61,4.336-1.162,6.539-1.652
	c8.792-1.939,17.854-3.051,27.035-3.576l17.811-1.015c0.814,1.808,1.59,3.628,2.338,5.454c-6.648,0.188-13.322,0.363-19.969,0.654
	c-9.574,0.434-19.261,1.354-28.824,3.486c-1.181,0.262-2.367,0.536-3.542,0.829c-0.254-0.261-0.497-0.535-0.75-0.802
	c-0.183-0.452-0.353-0.908-0.524-1.357C59.508,181.567,59.358,180.931,59.214,180.296z M110.442,214.677
	c-2.08,0.816-4.393,1.481-6.666,1.891c-1.278,0.244-2.57,0.408-3.87,0.504c-6.3-0.455-12.576-2.484-18.248-5.702
	c-0.511-0.288-0.997-0.606-1.496-0.909c0.796-0.194,1.596-0.391,2.396-0.572c5.576-1.229,11.254-2.123,17.01-2.747
	c1.457-0.019,2.91-0.112,4.358-0.286c0.713-0.086,1.413-0.188,2.105-0.303c1.185-0.091,2.378-0.172,3.567-0.24l6.002-0.34
	c-0.369,2.389-0.912,4.733-1.615,7.025C112.823,213.628,111.642,214.197,110.442,214.677z M37.774,233.912
	c1.91-3.346,4.682-6.245,8.009-8.591c0.41-0.294,0.834-0.581,1.267-0.856l1.387-0.855c1.029-0.635,1.887-1.136,2.895-1.706
	c1.947-1.111,3.916-2.175,5.92-3.164c4.014-1.988,8.141-3.712,12.362-5.163c0.626-0.219,1.233-0.424,1.854-0.627
	c2.099,2.511,4.378,4.892,6.841,7.086c3.508,3.908,7.46,7.447,11.904,10.416c2.182,1.454,4.484,2.762,6.891,3.885
	c-3.75,2.396-7.848,4.347-12.08,5.886c-8.375,3.027-17.371,4.562-26.288,4.62c-4.46,0.018-8.908-0.344-13.212-1.165
	c-2.152-0.413-4.268-0.938-6.31-1.601c-1.029-0.338-2.008-0.69-3.021-1.107c-0.305-0.128-0.626-0.269-0.936-0.406
	C35.737,238.222,36.583,235.98,37.774,233.912z M94.696,144.248c3.412,5.4,6.648,10.898,9.672,16.499
	c-5.439,0.15-10.887,0.313-16.325,0.546c-9.573,0.438-19.259,1.355-28.821,3.49c-0.969,0.209-1.923,0.444-2.888,0.68
	c-0.75-4.789-1.296-9.601-1.581-14.42c-0.273-4.908-0.26-9.828,0.234-14.675c0.502-4.833,1.474-9.632,3.326-14.005
	c0.923-2.179,2.079-4.237,3.512-6.027c1.426-1.786,3.148-3.296,5.091-4.252c1.444-0.72,3.013-1.112,4.546-1.103
	C79.608,121.827,87.505,132.821,94.696,144.248z M57.247,185.339c-0.129,0.04-0.258,0.077-0.388,0.113
	c-0.104-0.305-0.2-0.613-0.3-0.922C56.78,184.8,57.012,185.076,57.247,185.339z M118.128,232.507
	c0.305-0.059,0.624-0.109,0.929-0.173c-0.026,0.071-0.051,0.152-0.077,0.231c-0.349,0.056-0.687,0.119-1.029,0.165
	C118.011,232.658,118.065,232.585,118.128,232.507z M162.255,175.611c0.427-0.765,0.848-1.523,1.271-2.293
	c-0.393,0.766-0.78,1.523-1.165,2.285C162.325,175.608,162.29,175.608,162.255,175.611z M185.628,150.455
	c7.422-14.667,14.734-29.377,22.055-44.071l-0.973,2.057c-6.971,14.927-13.924,29.854-20.984,44.721
	c-0.781,1.651-1.576,3.295-2.361,4.947c-0.587,0.088-1.173,0.18-1.766,0.266C182.942,155.734,184.286,153.093,185.628,150.455z
	 M190.889,155.693c7.44-14.712,14.772-29.472,22.12-44.212l11.063-22.059c1.875-3.647,3.709-7.333,5.692-10.725
	c2.015-3.475,4.148-6.851,6.463-10.045c4.621-6.369,10.026-12.039,16.433-15.707c6.37-3.725,13.721-5.182,21.229-4.783
	c3.75,0.177,7.546,0.774,11.309,1.655c3.771,0.866,7.525,2.008,11.233,3.344c1.856,0.671,3.718,1.372,5.557,2.114l1.357,0.559
	l0.665,0.297c-0.658,4.204-1.881,8.467-3.436,12.634c-2.811,7.276-6.576,14.376-10.901,21.174
	c-4.305,6.82-9.185,13.355-14.433,19.602c-5.295,6.211-10.951,12.163-17.078,17.593c-3.056,2.731-6.203,5.365-9.507,7.784
	c-3.289,2.438-6.727,4.687-10.353,6.546c-7.242,3.542-14.697,6.667-22.373,9.125c-7.67,2.524-15.516,4.449-23.427,5.984
	c-0.757,0.144-1.509,0.265-2.271,0.401C190.454,156.546,190.668,156.121,190.889,155.693z M173.132,174.716
	c0.4-0.748,0.799-1.497,1.203-2.247c0.865-1.649,1.708-3.308,2.566-4.964c0.704-0.114,1.414-0.227,2.121-0.352
	c-1.184,2.442-2.359,4.883-3.541,7.32c-0.557,0.057-1.104,0.121-1.649,0.177C173.597,174.675,173.367,174.693,173.132,174.716z
	 M178.354,164.697c0.687-1.322,1.367-2.646,2.049-3.973c0.629-0.119,1.258-0.247,1.888-0.371c-0.655,1.373-1.305,2.75-1.972,4.125
	C179.667,164.553,179.013,164.623,178.354,164.697z M189.263,158.889c1.191-0.265,2.383-0.522,3.561-0.806
	c7.906-1.822,15.709-4.041,23.393-6.611c7.657-2.634,15.236-5.555,22.534-9.083c3.773-1.779,7.284-4.004,10.733-6.292
	c3.43-2.327,6.78-4.764,10.055-7.309c6.506-5.13,12.809-10.554,18.794-16.347c6.001-5.78,11.7-11.918,16.942-18.524
	c0.715-0.913,1.42-1.836,2.116-2.766c-0.8,1.35-1.616,2.696-2.458,4.025c-4.313,6.822-9.185,13.359-14.445,19.602
	c-5.283,6.211-10.949,12.164-17.075,17.596c-3.058,2.729-6.201,5.362-9.501,7.78c-3.29,2.439-6.729,4.687-10.353,6.545
	c-7.241,3.545-14.698,6.666-22.378,9.125c-7.666,2.527-15.514,4.447-23.426,5.988c-3.622,0.686-7.252,1.277-10.898,1.797
	C187.655,162.041,188.457,160.464,189.263,158.889z M64.335,101.594c0.135,0.18,0.276,0.362,0.41,0.542
	c-0.814,0.107-1.611,0.29-2.393,0.538c0.475-0.312,0.955-0.594,1.451-0.841C63.972,101.748,64.151,101.67,64.335,101.594z
	 M53.275,166.253c-0.364,0.094-0.731,0.186-1.095,0.288c-1.307-6.872-2.276-13.792-2.684-20.736
	c-0.014-0.274-0.02-0.548-0.039-0.819C50.255,152.167,51.606,159.253,53.275,166.253z M37.601,252.423
	c3.596,1.379,7.256,2.303,10.954,2.936c4.95,0.842,9.916,1.13,14.847,1.012c9.866-0.252,19.637-2.09,28.879-5.616
	c4.609-1.772,9.09-3.985,13.272-6.738c2.509-1.655,4.89-3.534,7.125-5.597c1.271,0.083,2.536,0.109,3.813,0.078
	c-1.219,2.25-2.689,4.359-4.383,6.311c-5.66,6.5-13.49,11.128-21.826,14.159c-7.742,2.796-16.006,4.302-24.246,4.569
	c-3.381-0.131-6.738-0.488-10.004-1.111c-2.152-0.413-4.266-0.941-6.306-1.605c-1.03-0.332-2.006-0.689-3.026-1.105
	c-0.935-0.385-1.928-0.836-2.854-1.312c-0.717-0.356-1.406-0.745-2.096-1.147C40.232,255.763,38.838,254.144,37.601,252.423z
	 M197.755,171.278c-5.347,1.015-10.73,1.829-16.134,2.497c1.354-2.602,2.706-5.199,4.038-7.812c4.159-0.792,8.307-1.665,12.42-2.638
	c7.904-1.826,15.705-4.049,23.393-6.618c7.65-2.632,15.238-5.552,22.533-9.079c3.77-1.778,7.283-4.006,10.732-6.295
	c3.429-2.327,6.78-4.762,10.053-7.305c6.51-5.131,12.809-10.556,18.795-16.351c2.883-2.776,5.696-5.64,8.418-8.596
	c-3.549,5.228-7.411,10.289-11.516,15.166c-5.283,6.21-10.949,12.159-17.075,17.593c-3.058,2.73-6.201,5.363-9.501,7.781
	c-3.29,2.438-6.729,4.688-10.353,6.543c-7.241,3.547-14.698,6.676-22.378,9.125C213.515,167.818,205.667,169.74,197.755,171.278z
	 M150.458,172.693l0.565-0.725c-0.94,1.813-1.9,3.605-2.899,5.346l-0.479,0.828c-0.594,0.029-1.182,0.053-1.779,0.08
	c0.729-0.846,1.443-1.689,2.156-2.547L150.458,172.693z M164.364,181.05c0.082-0.14,0.163-0.273,0.244-0.412
	c-0.066,0.137-0.135,0.272-0.197,0.407C164.391,181.05,164.378,181.05,164.364,181.05z M171.044,178.621
	c0.854-0.113,1.711-0.221,2.564-0.34c-0.359,0.733-0.719,1.461-1.084,2.197c-0.861,0.066-1.723,0.123-2.584,0.191
	C170.308,179.986,170.671,179.304,171.044,178.621z M221.472,166.179c7.65-2.635,15.238-5.557,22.533-9.086
	c3.77-1.777,7.283-4.004,10.732-6.292c3.429-2.325,6.78-4.765,10.053-7.307c5.687-4.481,11.192-9.198,16.482-14.179
	c-3.981,4.38-8.164,8.589-12.602,12.524c-3.061,2.73-6.205,5.363-9.508,7.781c-3.289,2.438-6.723,4.688-10.352,6.543
	c-7.24,3.547-14.698,6.676-22.382,9.125c-5.935,1.962-11.987,3.547-18.087,4.881C212.755,168.953,217.134,167.625,221.472,166.179z
	 M52.704,182.369c0.609,1.267,1.249,2.517,1.911,3.746c-0.277,0.087-0.552,0.172-0.83,0.262c-0.606,0.186-1.245,0.396-1.885,0.607
	c-0.671-1.191-1.309-2.404-1.914-3.631C50.886,183.011,51.794,182.687,52.704,182.369z M203.011,176.518
	c-7.926,1.497-15.909,2.593-23.922,3.371c-0.238,0.022-0.469,0.04-0.702,0.062c0.401-0.748,0.796-1.496,1.198-2.244
	c0.061-0.112,0.118-0.224,0.18-0.336c7.906-1.252,15.789-2.736,23.574-4.574c7.897-1.831,15.699-4.052,23.386-6.617
	c7.66-2.635,15.237-5.557,22.538-9.086c3.772-1.777,7.281-4.004,10.728-6.292c3.431-2.325,6.786-4.765,10.058-7.307
	c4.486-3.539,8.865-7.226,13.12-11.068c-4.544,5.143-9.347,10.087-14.497,14.653c-3.061,2.726-6.205,5.362-9.508,7.779
	c-3.289,2.439-6.723,4.688-10.352,6.543c-7.24,3.546-14.698,6.671-22.382,9.127C218.771,173.057,210.921,174.98,203.011,176.518z
	 M132.276,172.878c-1.148,1.371-2.324,2.721-3.502,4.061c-0.621-1.316-1.26-2.621-1.918-3.918c1.863-0.111,3.728-0.232,5.588-0.357
	C132.389,172.735,132.333,172.806,132.276,172.878z M48.784,183.832c0.633,1.196,1.287,2.377,1.978,3.539
	c-0.151,0.049-0.307,0.1-0.448,0.152c-4.645,1.641-9.193,3.59-13.584,5.811c-2.195,1.11-4.354,2.289-6.47,3.537
	c-1.027,0.605-2.179,1.318-3.14,1.926l-1.597,1.025c-0.544,0.377-1.091,0.754-1.628,1.152c-1.061,0.777-2.102,1.617-3.103,2.51
	c0.161-0.314,0.327-0.629,0.507-0.938c1.906-3.34,4.68-6.246,8.002-8.588c0.417-0.297,0.844-0.578,1.271-0.859l1.382-0.855
	c1.039-0.63,1.895-1.134,2.898-1.705c1.949-1.113,3.92-2.174,5.928-3.164C43.401,186.075,46.071,184.904,48.784,183.832z
	 M124.757,250.462c-3.9,4.49-8.859,8.066-14.292,10.863c0.349-0.225,0.708-0.429,1.059-0.65c4.175-2.756,8.071-6.063,11.351-9.982
	c3.273-3.904,5.91-8.465,7.535-13.334c0.213-0.627,0.408-1.252,0.592-1.883c0.131-0.053,0.253-0.107,0.379-0.159
	c-0.453,2.944-1.156,5.831-2.115,8.62C128.022,246.267,126.503,248.447,124.757,250.462z M167.134,190.673l1.459-2.281
	c-0.385,0.756-0.77,1.508-1.156,2.26C167.337,190.657,167.233,190.666,167.134,190.673z M168.647,188.295l-1.098,0.054l2.365-3.687
	c0.193-0.023,0.389-0.046,0.588-0.069c-0.311,0.617-0.607,1.238-0.915,1.855C169.271,187.06,168.961,187.679,168.647,188.295z
	 M226.725,171.419c7.66-2.641,15.237-5.558,22.538-9.086c3.772-1.779,7.281-4.006,10.728-6.293
	c3.431-2.326,6.786-4.766,10.056-7.307c5.688-4.48,11.195-9.201,16.486-14.183c-3.984,4.381-8.171,8.591-12.609,12.528
	c-3.054,2.726-6.203,5.362-9.506,7.779c-3.291,2.439-6.723,4.688-10.346,6.543c-7.24,3.546-14.699,6.671-22.385,9.127
	c-5.934,1.958-11.979,3.547-18.084,4.883C218.011,174.191,222.393,172.865,226.725,171.419z M151.667,161.246
	c-0.096,0.001-0.202,0.012-0.304,0.016l1.456-2.27C152.44,159.744,152.058,160.494,151.667,161.246z M172.764,190.316
	c1.198-2.143,2.376-4.297,3.531-6.457c2.802-0.374,5.605-0.764,8.4-1.201c8.021-1.256,16.003-2.758,23.894-4.629
	c7.906-1.823,15.713-4.046,23.395-6.609c7.651-2.641,15.234-5.558,22.533-9.086c3.773-1.779,7.277-4.006,10.734-6.293
	c3.426-2.326,6.775-4.766,10.052-7.307c6.509-5.131,12.808-10.554,18.794-16.353c2.885-2.776,5.695-5.641,8.424-8.595
	c-3.555,5.229-7.413,10.29-11.516,15.166c-5.291,6.211-10.946,12.163-17.082,17.594c-3.054,2.727-6.203,5.362-9.506,7.779
	c-3.291,2.439-6.723,4.688-10.346,6.542c-7.24,3.546-14.699,6.674-22.385,9.13c-7.661,2.527-15.514,4.449-23.42,5.986
	c-7.921,1.498-15.904,2.594-23.928,3.373C180.485,189.738,176.624,190.05,172.764,190.316z M158.566,143.057
	c3.833-7.308,7.572-14.659,11.298-22.014c7.412-14.654,14.72-29.355,22.033-44.033l-0.952,2.018
	c-6.97,14.927-13.929,29.854-20.985,44.724c-3.527,7.434-7.092,14.85-10.697,22.236c-1.783,3.699-3.603,7.387-5.439,11.047
	c-0.32,0.614-0.633,1.234-0.946,1.854l-3.059,0.147C152.891,153.757,155.702,148.41,158.566,143.057z M33.731,116.393
	c-0.276-4.907-0.263-9.827,0.231-14.675c0.503-4.832,1.483-9.632,3.33-14.005c0.921-2.177,2.077-4.236,3.509-6.027
	c1.433-1.786,3.15-3.295,5.096-4.253c1.791-0.898,3.796-1.276,5.664-1.016c-0.961,0.274-1.887,0.644-2.75,1.101
	c-2.496,1.305-4.535,3.224-6.162,5.347c-1.623,2.135-2.855,4.485-3.816,6.9c-1.918,4.845-2.809,9.929-3.225,14.976
	c-0.396,5.056-0.289,10.11,0.106,15.114c0.11,1.374,0.249,2.746,0.403,4.115c-0.125,3.796,0.01,7.583,0.306,11.347
	c0.099,1.225,0.213,2.445,0.345,3.664C35.282,131.503,34.171,123.961,33.731,116.393z M43.673,165.349
	c0.586,1.107,1.199,2.199,1.83,3.275c-0.148,0.051-0.303,0.102-0.447,0.15c-0.166,0.058-0.333,0.129-0.502,0.188
	C44.24,167.763,43.952,166.562,43.673,165.349z M127.871,260.712c-1.651,1.896-3.509,3.627-5.503,5.211
	c2.063-1.755,4-3.666,5.764-5.764c1.813-2.168,3.43-4.545,4.787-7.059C131.591,255.833,129.892,258.385,127.871,260.712z
	 M296.257,144.189c-5.294,6.211-10.945,12.158-17.082,17.592c-3.05,2.732-6.198,5.365-9.5,7.784
	c-3.293,2.438-6.725,4.689-10.354,6.544c-7.239,3.545-14.69,6.67-22.374,9.127c-7.66,2.523-15.51,4.448-23.424,5.986
	c-7.92,1.498-15.909,2.592-23.924,3.375c-5.726,0.569-11.465,0.979-17.206,1.315l1.443-2.263c3.628-0.463,7.245-0.965,10.859-1.521
	c8.021-1.261,16.003-2.761,23.894-4.632c7.906-1.824,15.713-4.049,23.395-6.613c7.651-2.639,15.234-5.554,22.533-9.085
	c3.773-1.778,7.277-4.005,10.734-6.293c3.426-2.325,6.775-4.765,10.052-7.306c6.509-5.131,12.808-10.555,18.798-16.351
	c5.998-5.778,11.697-11.916,16.937-18.522c0.714-0.912,1.421-1.834,2.117-2.764c-0.796,1.349-1.616,2.693-2.464,4.024
	C306.392,131.408,301.51,137.945,296.257,144.189z"/>
</svg>
